<svg width="0" height="0" class="hidden"><symbol fill="none" xmlns="http://www.w3.org/2000/svg" viewBox="0 0 16 16" id="arrow-left"><path d="M3.333 8h9.334M8 12.667 12.667 8 8 3.333" stroke="#000" stroke-width="1.333" stroke-linecap="round" stroke-linejoin="round"/></symbol><symbol fill="none" xmlns="http://www.w3.org/2000/svg" viewBox="0 0 16 16" id="arrow-right"><path d="M12.667 8H3.333M8 12.667 3.333 8 8 3.333" stroke="#000" stroke-width="1.333" stroke-linecap="round" stroke-linejoin="round"/></symbol><symbol fill="none" xmlns="http://www.w3.org/2000/svg" viewBox="0 0 24 24" id="film"><path d="M19.82 2H4.18A2.18 2.18 0 0 0 2 4.18v15.64A2.18 2.18 0 0 0 4.18 22h15.64A2.18 2.18 0 0 0 22 19.82V4.18A2.18 2.18 0 0 0 19.82 2ZM7 2v20M17 2v20M2 12h20M2 7h5M2 17h5M17 17h5M17 7h5" stroke="#fff" stroke-width="2" stroke-linecap="round" stroke-linejoin="round"/></symbol><svg width="0" height="0" class="hidden"><symbol fill="none" xmlns="http://www.w3.org/2000/svg" viewBox="0 0 14 14" id="Lv"><path d="m7 13.188-.98-.97C2.38 9.03 0 6.88 0 4.248 0 2.097 1.68.435 3.85.435 5.04.436 6.23.99 7 1.89A4.224 4.224 0 0 1 10.15.436C12.32.436 14 2.099 14 4.247c0 2.634-2.38 4.783-6.02 7.97l-.98.971Z" fill="#FF6B08"/></symbol></svg></svg>